<svg width="32" height="38" viewBox="0 0 32 38" fill="none" xmlns="http://www.w3.org/2000/svg">
<path d="M15.7837 9.90649L7.89185 14.839V23.3227L15.7837 18.9823V9.90649Z" fill="#DF0691"/>
<path d="M7.89185 23.3227L15.7837 18.9822L7.89185 14.839V23.3227Z" fill="#CB0784"/>
<path d="M-0.00012207 28.4525L15.7837 37.3309V27.8606L-0.00012207 18.7849V28.4525Z" fill="#7D5FA4"/>
<path d="M-0.00012207 18.7849V28.4525L7.89177 23.3227L-0.00012207 18.7849Z" fill="#9581AD"/>
<path d="M15.7837 37.3308L31.5675 28.2552L23.8729 23.52L15.7837 27.8606V37.3308Z" fill="#229BDC"/>
<path d="M15.981 0.830811L7.89185 5.17135L23.8729 14.4443L31.5675 9.90649L15.981 0.830811Z" fill="#09A3E3"/>
<path d="M15.981 0.830811L7.89185 5.17135L15.7837 9.70919L15.981 0.830811Z" fill="#1FB9F9"/>
<path d="M23.8729 23.52L31.5675 28.2551V9.90649L23.8729 14.4443V23.52Z" fill="#0683C6"/>
</svg>
